<svg width="960" height="440" viewBox="0 0 960 440" fill="none" xmlns="http://www.w3.org/2000/svg">
  <rect width="960" height="440" rx="24" fill="#FFF8ED"/>
  <rect x="48" y="72" width="228" height="126" rx="20" fill="#FFF1D6" stroke="#F59E0B" stroke-width="2"/>
  <text x="80" y="116" fill="#9A3412" font-family="Arial, sans-serif" font-size="28" font-weight="700">ConfigMap</text>
  <text x="80" y="150" fill="#7C2D12" font-family="Arial, sans-serif" font-size="18">普通配置 / 连接地址 / 开关</text>
  <text x="80" y="178" fill="#7C2D12" font-family="Arial, sans-serif" font-size="18">配置文件片段</text>

  <rect x="48" y="240" width="228" height="126" rx="20" fill="#FFE4E6" stroke="#E11D48" stroke-width="2"/>
  <text x="80" y="284" fill="#9F1239" font-family="Arial, sans-serif" font-size="28" font-weight="700">Secret</text>
  <text x="80" y="318" fill="#881337" font-family="Arial, sans-serif" font-size="18">密码 / Token / 证书 / 私钥</text>
  <text x="80" y="346" fill="#881337" font-family="Arial, sans-serif" font-size="18">镜像仓库凭据</text>

  <rect x="352" y="72" width="256" height="294" rx="24" fill="#FFFFFF" stroke="#FDBA74" stroke-width="2"/>
  <text x="432" y="114" fill="#9A3412" font-family="Arial, sans-serif" font-size="30" font-weight="700">Pod</text>

  <rect x="388" y="138" width="184" height="56" rx="16" fill="#FFF7ED" stroke="#FB923C" stroke-width="2"/>
  <text x="422" y="172" fill="#9A3412" font-family="Arial, sans-serif" font-size="20" font-weight="600">环境变量</text>

  <rect x="388" y="218" width="184" height="56" rx="16" fill="#FFF7ED" stroke="#FB923C" stroke-width="2"/>
  <text x="422" y="252" fill="#9A3412" font-family="Arial, sans-serif" font-size="20" font-weight="600">挂载文件</text>

  <rect x="388" y="298" width="184" height="40" rx="12" fill="#FFF7ED" stroke="#FB923C" stroke-width="2"/>
  <text x="419" y="323" fill="#9A3412" font-family="Arial, sans-serif" font-size="18" font-weight="600">imagePullSecrets</text>

  <rect x="680" y="110" width="224" height="92" rx="20" fill="#ECFDF5" stroke="#10B981" stroke-width="2"/>
  <text x="714" y="150" fill="#065F46" font-family="Arial, sans-serif" font-size="24" font-weight="700">应用容器</text>
  <text x="714" y="180" fill="#047857" font-family="Arial, sans-serif" font-size="18">读取配置并运行</text>

  <rect x="680" y="238" width="224" height="92" rx="20" fill="#EFF6FF" stroke="#3B82F6" stroke-width="2"/>
  <text x="704" y="278" fill="#1D4ED8" font-family="Arial, sans-serif" font-size="24" font-weight="700">Kubelet / CRI</text>
  <text x="704" y="308" fill="#2563EB" font-family="Arial, sans-serif" font-size="18">拉取镜像与挂载卷</text>

  <path d="M276 135H352" stroke="#F59E0B" stroke-width="4" stroke-linecap="round"/>
  <path d="M276 303H352" stroke="#E11D48" stroke-width="4" stroke-linecap="round"/>
  <path d="M608 170H680" stroke="#FB923C" stroke-width="4" stroke-linecap="round"/>
  <path d="M608 284H680" stroke="#FB923C" stroke-width="4" stroke-linecap="round"/>

  <circle cx="352" cy="135" r="6" fill="#F59E0B"/>
  <circle cx="352" cy="303" r="6" fill="#E11D48"/>
  <circle cx="680" cy="170" r="6" fill="#FB923C"/>
  <circle cx="680" cy="284" r="6" fill="#FB923C"/>
</svg>
