<svg width="1200" height="620" viewBox="0 0 1200 620" fill="none" xmlns="http://www.w3.org/2000/svg">
  <rect width="1200" height="620" rx="28" fill="#F8FAFC"/>
  <rect x="70" y="70" width="1060" height="480" rx="28" fill="#FFF7ED" stroke="#FDBA74" stroke-width="2"/>
  <rect x="390" y="105" width="420" height="110" rx="24" fill="#FFFFFF" stroke="#EA580C" stroke-width="3"/>
  <text x="600" y="152" text-anchor="middle" fill="#9A3412" font-size="22" font-family="Arial, sans-serif" font-weight="700">kube-controller-manager</text>
  <text x="600" y="184" text-anchor="middle" fill="#7C2D12" font-size="16" font-family="Arial, sans-serif">运行多种控制器，持续调谐集群状态</text>
  <g stroke="#FB923C" stroke-width="4" stroke-linecap="round">
    <path d="M600 215V265"/>
    <path d="M280 310L470 235"/>
    <path d="M920 310L730 235"/>
    <path d="M370 470L520 390"/>
    <path d="M830 470L680 390"/>
    <path d="M600 470V390"/>
  </g>
  <g>
    <rect x="120" y="280" width="280" height="90" rx="20" fill="#FFFFFF" stroke="#FED7AA" stroke-width="2"/>
    <text x="260" y="332" text-anchor="middle" fill="#9A3412" font-size="20" font-family="Arial, sans-serif" font-weight="700">ReplicaSet Controller</text>
    <rect x="460" y="280" width="280" height="90" rx="20" fill="#FFFFFF" stroke="#FED7AA" stroke-width="2"/>
    <text x="600" y="332" text-anchor="middle" fill="#9A3412" font-size="20" font-family="Arial, sans-serif" font-weight="700">Deployment Controller</text>
    <rect x="800" y="280" width="280" height="90" rx="20" fill="#FFFFFF" stroke="#FED7AA" stroke-width="2"/>
    <text x="940" y="332" text-anchor="middle" fill="#9A3412" font-size="20" font-family="Arial, sans-serif" font-weight="700">Node Controller</text>
  </g>
  <g>
    <rect x="200" y="430" width="220" height="74" rx="18" fill="#FFFFFF" stroke="#FED7AA" stroke-width="2"/>
    <text x="310" y="460" text-anchor="middle" fill="#C2410C" font-size="18" font-family="Arial, sans-serif" font-weight="700">DaemonSet / Job</text>
    <text x="310" y="487" text-anchor="middle" fill="#7C2D12" font-size="14" font-family="Arial, sans-serif">其他工作负载控制器</text>
    <rect x="490" y="430" width="220" height="74" rx="18" fill="#FFFFFF" stroke="#FED7AA" stroke-width="2"/>
    <text x="600" y="460" text-anchor="middle" fill="#C2410C" font-size="18" font-family="Arial, sans-serif" font-weight="700">StatefulSet</text>
    <text x="600" y="487" text-anchor="middle" fill="#7C2D12" font-size="14" font-family="Arial, sans-serif">管理有状态应用</text>
    <rect x="780" y="430" width="220" height="74" rx="18" fill="#FFFFFF" stroke="#FED7AA" stroke-width="2"/>
    <text x="890" y="460" text-anchor="middle" fill="#C2410C" font-size="18" font-family="Arial, sans-serif" font-weight="700">Service / Endpoint</text>
    <text x="890" y="487" text-anchor="middle" fill="#7C2D12" font-size="14" font-family="Arial, sans-serif">围绕访问和状态联动</text>
  </g>
</svg>
