<?xml version="1.0" standalone="no"?><!DOCTYPE svg PUBLIC "-//W3C//DTD SVG 1.1//EN" "http://www.w3.org/Graphics/SVG/1.1/DTD/svg11.dtd"><svg t="1752020573095" class="icon" viewBox="0 0 1024 1024" version="1.1" xmlns="http://www.w3.org/2000/svg" p-id="6347" xmlns:xlink="http://www.w3.org/1999/xlink" width="200" height="200"><path d="M162.283824 613.532533c0 214.223116 173.653591 387.876707 387.876707 387.876707S938.037238 827.755649 938.037238 613.532533 764.372203 225.66727 550.160531 225.66727 162.283824 399.320861 162.283824 613.532533z m0 0" fill="#FF7C1A" p-id="6348"></path><path d="M550.160531 1023.988556c-226.331031 0-410.456023-184.124992-410.456023-410.444579s184.124992-410.456023 410.456023-410.456022 410.444579 184.124992 410.444579 410.456022S776.480118 1023.988556 550.160531 1023.988556z m0-775.730526c-201.417108 0-365.274503 163.868839-365.274503 365.285947S348.743423 978.818481 550.160531 978.818481s365.274503-163.857395 365.274503-365.274504-163.857395-365.285947-365.274503-365.285947z m0 0" fill="#FF601A" p-id="6349"></path><path d="M719.270793 767.948501a12.874673 12.874673 0 1 0 12.874673-12.863229 12.874673 12.874673 0 0 0-12.874673 12.863229z m0 0M373.691678 378.286506a12.863229 12.863229 0 1 0 12.863229-12.863229 12.863229 12.863229 0 0 0-12.863229 12.863229z m0 0M667.806433 639.270435a12.863229 12.863229 0 1 0 6.431614-11.146606 12.828896 12.828896 0 0 0-6.431614 11.146606z m0 0M542.80194 790.001386a12.874673 12.874673 0 1 0 6.431615-11.135162 12.851785 12.851785 0 0 0-6.431615 11.135162z m0 0M693.544335 345.155681a12.863229 12.863229 0 1 0 12.863229-12.874673 12.863229 12.863229 0 0 0-12.863229 12.874673z m0 0M770.746597 738.537026a12.874673 12.874673 0 1 0 12.863229-12.874673 12.863229 12.863229 0 0 0-12.863229 12.874673z m0 0M675.15358 801.03355a12.874673 12.874673 0 1 0 12.874673-12.863229 12.874673 12.874673 0 0 0-12.874673 12.863229z m0 0M664.132859 859.856501a12.863229 12.863229 0 1 0 12.863229-12.863229 12.874673 12.874673 0 0 0-12.863229 12.863229z m0 0M623.677776 922.353025a12.886117 12.886117 0 1 0 6.443058-11.146606 12.897561 12.897561 0 0 0-6.443058 11.146606z m0 0M329.574465 826.771452a12.863229 12.863229 0 1 0 12.863229-12.863229 12.863229 12.863229 0 0 0-12.863229 12.863229z m0 0M550.149087 856.182928a12.886117 12.886117 0 1 0 6.443059-11.146606 12.886117 12.886117 0 0 0-6.443059 11.146606z m0 0M759.702988 856.182928a12.874673 12.874673 0 1 0 6.431615-11.146606 12.92045 12.92045 0 0 0-6.431615 11.146606z m0 0M778.093744 797.359977a12.874673 12.874673 0 1 0 12.874673-12.806008 12.874673 12.874673 0 0 0-12.874673 12.863229z m0 0M859.541787 709.12555a12.874673 12.874673 0 1 0 12.863229-12.874673 12.863229 12.863229 0 0 0-12.863229 12.874673z m0 0M580.121326 879.162789a12.874673 12.874673 0 1 0 12.874673-12.863229 12.874673 12.874673 0 0 0-12.874673 12.863229z m0 0M447.208923 856.182928a12.874673 12.874673 0 1 0 6.431614-11.146606 12.897561 12.897561 0 0 0-6.431614 11.146606z m0 0M638.394957 745.884173a12.863229 12.863229 0 1 0 12.863229-12.828897 12.863229 12.863229 0 0 0-12.863229 12.863229z m0 0M770.746597 591.479649a12.874673 12.874673 0 1 0 12.863229-12.863229 12.874673 12.874673 0 0 0-12.863229 12.863229z m0 0M564.854825 293.679877a12.874673 12.874673 0 1 0 12.874673-12.863229 12.874673 12.874673 0 0 0-12.874673 12.863229z m0 0M778.105188 664.996893a12.863229 12.863229 0 1 0 12.863229-12.863229 12.863229 12.863229 0 0 0-12.863229 12.863229z m0 0M857.161403 492.213058a12.874673 12.874673 0 1 0 6.488835-11.15805 12.863229 12.863229 0 0 0-6.431614 11.15805z m0 0" fill="#FF661A" p-id="6350"></path><path d="M269.046335 300.46626A239.091263 239.091263 0 0 1 69.425959 193.165873a22.579316 22.579316 0 0 1-0.720981-23.838172c41.977156-72.201167 116.730369-116.730369 200.112474-119.270972a239.182816 239.182816 0 0 1 206.87597 107.151613 22.556427 22.556427 0 0 1 0.698093 23.849616 238.358837 238.358837 0 0 1-200.10103 119.259528c-2.426161 0.068665-4.829433 0.102997-7.24415 0.102997z" fill="#60B71C" p-id="6351"></path><path d="M495.365922 337.007443a22.59076 22.59076 0 0 1-22.075772-17.898656l-34.927558-164.292273a22.693757 22.693757 0 0 1-0.13733-8.697557l22.888308-127.533651a22.59076 22.59076 0 0 1 44.460538 8.010908l-22.098662 123.150539 34.000582 159.966383a22.636536 22.636536 0 0 1-22.110106 27.294307z m0 0" fill="#167203" p-id="6352"></path><path d="M429.207269 308.820492c0-26.138447 14.488299-53.547196 36.976061-58.788618l38.54391-7.175485c22.487762-5.252867 47.813675 10.55151 60.25347 40.546637 6.099734 27.465969 15.873041 46.680704-31.837636 57.998972l-38.521022 7.404368c-56.39679 12.680122-64.819688-13.916091-65.414783-39.985874z m0 0" fill="#167203" p-id="6353"></path><path d="M838.4731 752.270011a22.190214 22.190214 0 0 1-7.57603-1.327522 22.579316 22.579316 0 0 1-13.732985-28.81638c2.380384-6.866492 55.286707-163.273743-65.918326-298.120208a22.585038 22.585038 0 1 1 33.588591-30.201122c139.664454 155.388721 77.579919 335.817251 74.867655 343.450502a22.59076 22.59076 0 0 1-21.228905 15.01473z m0 0M681.539418 352.479939a28.026733 28.026733 0 1 0 28.026732-27.980956 28.026733 28.026733 0 0 0-28.026732 28.026733z m0 0" fill="#FFFFFF" p-id="6354"></path></svg>