<svg viewBox="0 0 420 350" xmlns="http://www.w3.org/2000/svg" style="max-width:100%;height:auto;">
  <defs>
    <marker id="arr" markerWidth="8" markerHeight="6" refX="8" refY="3" orient="auto"><polygon points="0 0, 8 3, 0 6" fill="#2563EB"/></marker>
  </defs>

  <rect x="110" y="10" width="200" height="38" rx="10" fill="#DBEAFE" stroke="#93C5FD" stroke-width="1.5"/>
  <text x="210" y="34" text-anchor="middle" font-size="13" font-weight="700" fill="#1E40AF">开发者 git push</text>
  <line x1="210" y1="48" x2="210" y2="68" stroke="#2563EB" stroke-width="2" marker-end="url(#arr)"/>

  <rect x="110" y="72" width="200" height="38" rx="10" fill="#F1F5F9" stroke="#CBD5E1" stroke-width="1.5"/>
  <text x="210" y="96" text-anchor="middle" font-size="13" font-weight="700" fill="#1E293B">Nginx / GitLab Shell</text>
  <line x1="210" y1="110" x2="210" y2="130" stroke="#2563EB" stroke-width="2" marker-end="url(#arr)"/>

  <rect x="90" y="134" width="240" height="38" rx="10" fill="#EDE9FE" stroke="#C4B5FD" stroke-width="1.5"/>
  <text x="210" y="153" text-anchor="middle" font-size="13" font-weight="700" fill="#5B21B6">Gitaly</text>
  <text x="210" y="167" text-anchor="middle" font-size="10" fill="#7C3AED">写入 Git 数据到磁盘</text>
  <line x1="210" y1="172" x2="210" y2="192" stroke="#2563EB" stroke-width="2" marker-end="url(#arr)"/>

  <rect x="90" y="196" width="240" height="38" rx="10" fill="#F0FDF4" stroke="#86EFAC" stroke-width="1.5"/>
  <text x="210" y="215" text-anchor="middle" font-size="13" font-weight="700" fill="#166534">PostgreSQL</text>
  <text x="210" y="229" text-anchor="middle" font-size="10" fill="#15803D">更新项目元数据</text>
  <line x1="210" y1="234" x2="210" y2="254" stroke="#2563EB" stroke-width="2" marker-end="url(#arr)"/>

  <rect x="80" y="258" width="260" height="38" rx="10" fill="#FEF3C7" stroke="#FCD34D" stroke-width="1.5"/>
  <text x="210" y="277" text-anchor="middle" font-size="13" font-weight="700" fill="#92400E">Sidekiq</text>
  <text x="210" y="291" text-anchor="middle" font-size="10" fill="#B45309">触发 CI/CD · 发送通知 · 异步任务</text>

  <!-- 底部标注 -->
  <rect x="110" y="320" width="200" height="22" rx="6" fill="#E2E8F0"/>
  <text x="210" y="336" text-anchor="middle" font-size="11" fill="#475569" font-weight="600">Git Push 完整数据流</text>
</svg>
