<svg width="960" height="420" viewBox="0 0 960 420" fill="none" xmlns="http://www.w3.org/2000/svg">
  <rect width="960" height="420" rx="24" fill="#FFF8ED"/>

  <rect x="50" y="54" width="380" height="312" rx="24" fill="#FFFFFF" stroke="#FB923C" stroke-width="2"/>
  <text x="84" y="98" fill="#9A3412" font-family="Arial, sans-serif" font-size="30" font-weight="700">HPA</text>
  <text x="84" y="128" fill="#C2410C" font-family="Arial, sans-serif" font-size="18">Horizontal Pod Autoscaler</text>
  <text x="84" y="164" fill="#7C2D12" font-family="Arial, sans-serif" font-size="18">通过增加或减少 Pod 副本数来扩缩容</text>

  <rect x="92" y="208" width="76" height="92" rx="14" fill="#FFEDD5" stroke="#FB923C" stroke-width="2"/>
  <rect x="190" y="208" width="76" height="92" rx="14" fill="#FFEDD5" stroke="#FB923C" stroke-width="2"/>
  <rect x="288" y="208" width="76" height="92" rx="14" fill="#FFEDD5" stroke="#FB923C" stroke-width="2"/>
  <text x="110" y="262" fill="#9A3412" font-family="Arial, sans-serif" font-size="18" font-weight="700">Pod</text>
  <text x="208" y="262" fill="#9A3412" font-family="Arial, sans-serif" font-size="18" font-weight="700">Pod</text>
  <text x="306" y="262" fill="#9A3412" font-family="Arial, sans-serif" font-size="18" font-weight="700">Pod</text>
  <path d="M124 192V166" stroke="#F97316" stroke-width="4" stroke-linecap="round"/>
  <path d="M222 192V166" stroke="#F97316" stroke-width="4" stroke-linecap="round"/>
  <path d="M320 192V166" stroke="#F97316" stroke-width="4" stroke-linecap="round"/>
  <text x="84" y="336" fill="#7C2D12" font-family="Arial, sans-serif" font-size="17">适合无状态服务、API、Worker</text>

  <rect x="530" y="54" width="380" height="312" rx="24" fill="#FFFFFF" stroke="#2563EB" stroke-width="2"/>
  <text x="564" y="98" fill="#1D4ED8" font-family="Arial, sans-serif" font-size="30" font-weight="700">VPA</text>
  <text x="564" y="128" fill="#2563EB" font-family="Arial, sans-serif" font-size="18">Vertical Pod Autoscaler</text>
  <text x="564" y="164" fill="#1E3A8A" font-family="Arial, sans-serif" font-size="18">通过调整单个 Pod 的 CPU / 内存规格来扩缩容</text>

  <rect x="664" y="206" width="112" height="98" rx="18" fill="#DBEAFE" stroke="#3B82F6" stroke-width="2"/>
  <text x="693" y="250" fill="#1D4ED8" font-family="Arial, sans-serif" font-size="18" font-weight="700">Pod</text>
  <rect x="686" y="266" width="68" height="10" rx="5" fill="#60A5FA"/>
  <rect x="676" y="282" width="88" height="10" rx="5" fill="#3B82F6"/>
  <text x="612" y="336" fill="#1E3A8A" font-family="Arial, sans-serif" font-size="17">适合 rightsizing、单副本或难横向扩展场景</text>

  <path d="M720 194V174" stroke="#3B82F6" stroke-width="4" stroke-linecap="round"/>
  <path d="M704 180L720 164L736 180" stroke="#3B82F6" stroke-width="4" stroke-linecap="round" stroke-linejoin="round"/>
</svg>
