<?xml version="1.0" standalone="no"?><!DOCTYPE svg PUBLIC "-//W3C//DTD SVG 1.1//EN" "http://www.w3.org/Graphics/SVG/1.1/DTD/svg11.dtd"><svg t="1751812210212" class="icon" viewBox="0 0 1024 1024" version="1.1" xmlns="http://www.w3.org/2000/svg" p-id="18316" xmlns:xlink="http://www.w3.org/1999/xlink" width="200" height="200"><path d="M222.5 890c-37.5 0-67.9-30.5-67.9-67.9V278.2c0-37.5 30.5-67.9 67.9-67.9h423c37.5 0 67.9 30.5 67.9 67.9v543.9c0 37.5-30.5 67.9-67.9 67.9h-423z" fill="#FFBA40" p-id="18317"></path><path d="M646 232.3c25.3 0 45.9 20.6 45.9 45.9v543.9c0 25.3-20.6 45.9-45.9 45.9H222.5c-25.3 0-45.9-20.6-45.9-45.9V278.2c0-25.3 20.6-45.9 45.9-45.9H646m0-44.1H222.5c-49.7 0-89.9 40.3-89.9 89.9V822c0 49.7 40.3 89.9 89.9 89.9h423c49.7 0 89.9-40.3 89.9-89.9V278.2c0.5-49.7-40.3-90-89.4-90z" fill="#333333" p-id="18318"></path><path d="M222.5 813.6c-37.5 0-67.9-30.5-67.9-67.9V201.8c0-37.5 30.5-67.9 67.9-67.9h423c37.5 0 67.9 30.5 67.9 67.9v543.9c0 37.5-30.5 67.9-67.9 67.9h-423z" fill="#FFBA40" p-id="18319"></path><path d="M646 155.9c25.3 0 45.9 20.6 45.9 45.9v543.9c0 25.3-20.6 45.9-45.9 45.9H222.5c-25.3 0-45.9-20.6-45.9-45.9V201.8c0-25.3 20.6-45.9 45.9-45.9H646m0-44H222.5c-49.7 0-89.9 40.3-89.9 89.9v543.9c0 49.7 40.3 89.9 89.9 89.9h423c49.7 0 89.9-40.3 89.9-89.9V201.8c0.5-49.7-40.3-89.9-89.4-89.9z" fill="#333333" p-id="18320"></path><path d="M327.4 370c-12.2 0-22-9.8-22-22v-73.6c0-12.2 9.8-22 22-22H541c12.2 0 22 9.8 22 22V348c0 12.2-9.8 22-22 22H327.4z" fill="#27C18F" p-id="18321"></path><path d="M541 274.4V348H327.4v-73.6H541m0-44H327.4c-24.4 0-44 19.7-44 44V348c0 24.4 19.7 44 44 44H541c24.4 0 44-19.7 44-44v-73.6c0.1-24.3-19.6-44-44-44z" fill="#333333" p-id="18322"></path><path d="M371.9 680.1h124.6" fill="#FFBA40" p-id="18323"></path><path d="M496.5 702.1H371.9c-12.2 0-22-9.8-22-22s9.8-22 22-22H497c12.2 0 22 9.8 22 22s-10.3 22-22.5 22zM228.1 353.6c-12.2 0-22-9.8-22-22 0-28.1-23-51.1-51.1-51.1s-51.1 23-51.1 51.1c0 12.2-9.8 22-22 22s-22-9.8-22-22c0-52.5 42.6-95.1 95.1-95.1s95.1 42.6 95.1 95.1c0 12.1-9.8 22-22 22z m0 192.5c-12.2 0-22-9.8-22-22 0-28.1-23-51.1-51.1-51.1s-51.1 23-51.1 51.1c0 12.2-9.8 22-22 22s-22-9.8-22-22c0-52.5 42.6-95.1 95.1-95.1s95.1 42.6 95.1 95.1c0 12.2-9.8 22-22 22zM228.1 737.3c-12.2 0-22-9.8-22-22 0-28.1-23-51.1-51.1-51.1s-51.1 23-51.1 51.1c0 12.2-9.8 22-22 22s-22-9.8-22-22c0-52.5 42.6-95.1 95.1-95.1s95.1 42.6 95.1 95.1c0 12.1-9.8 22-22 22z" fill="#333333" p-id="18324"></path><path d="M794 411.2c-12.2 0-22-9.8-22-22V187.3c0-12.2 9.8-22 22-22h36.1c12.2 0 22 9.8 22 22v201.9c0 12.2-9.8 22-22 22H794z" fill="#27C18F" p-id="18325"></path><path d="M830.5 187.3v201.9H794V187.3h36.5m0-43.6H794c-24.4 0-44 19.7-44 44v201.9c0 24.4 19.7 44 44 44h36.1c24.4 0 44-19.7 44-44V187.3c0-23.9-19.7-43.6-43.6-43.6z" fill="#333333" p-id="18326"></path><path d="M794 813.6c-12.2 0-22-9.8-22-22V389.2c0-12.2 9.8-22 22-22h36.1c12.2 0 22 9.8 22 22v402.4c0 12.2-9.8 22-22 22H794z" fill="#27C18F" p-id="18327"></path><path d="M830.5 389.2v402.4H794V389.2h36.5m0-44H794c-24.4 0-44 19.7-44 44v402.4c0 24.4 19.7 44 44 44h36.1c24.4 0 44-19.7 44-44V389.2c0-24.4-19.7-44-43.6-44zM906.4 352.2c-12.2 0-22-9.8-22-22v-119c0-8.9-7-15.9-15.9-15.9-12.2 0-22-9.8-22-22s9.8-22 22-22c32.8 0 59.5 26.7 59.5 59.5v119c0.4 12.5-9.4 22.4-21.6 22.4z" fill="#333333" p-id="18328"></path></svg>