<svg viewBox="0 0 480 380" xmlns="http://www.w3.org/2000/svg" style="max-width:100%;height:auto;">
  <defs>
    <marker id="arr" markerWidth="8" markerHeight="6" refX="8" refY="3" orient="auto"><polygon points="0 0, 8 3, 0 6" fill="#7C3AED"/></marker>
  </defs>

  <rect x="110" y="10" width="260" height="40" rx="10" fill="#DBEAFE" stroke="#93C5FD" stroke-width="1.5"/>
  <text x="240" y="35" text-anchor="middle" font-size="13" font-weight="700" fill="#1E40AF">Scanner 连接 Server</text>
  <line x1="240" y1="50" x2="240" y2="70" stroke="#7C3AED" stroke-width="2" marker-end="url(#arr)"/>

  <rect x="80" y="74" width="320" height="40" rx="10" fill="#EDE9FE" stroke="#C4B5FD" stroke-width="1.5"/>
  <text x="240" y="91" text-anchor="middle" font-size="13" font-weight="700" fill="#5B21B6">下载项目配置和规则</text>
  <text x="240" y="107" text-anchor="middle" font-size="10" fill="#6D28D9">Quality Profile / Quality Gate / Rules</text>
  <line x1="240" y1="114" x2="240" y2="134" stroke="#7C3AED" stroke-width="2" marker-end="url(#arr)"/>

  <rect x="80" y="138" width="320" height="40" rx="10" fill="#F0FDF4" stroke="#86EFAC" stroke-width="1.5"/>
  <text x="240" y="155" text-anchor="middle" font-size="13" font-weight="700" fill="#166534">扫描源代码</text>
  <text x="240" y="171" text-anchor="middle" font-size="10" fill="#15803D">语法分析 · AST 生成 · 语义检查</text>
  <line x1="240" y1="178" x2="240" y2="198" stroke="#7C3AED" stroke-width="2" marker-end="url(#arr)"/>

  <rect x="80" y="202" width="320" height="40" rx="10" fill="#FEF3C7" stroke="#FCD34D" stroke-width="1.5"/>
  <text x="240" y="219" text-anchor="middle" font-size="13" font-weight="700" fill="#92400E">生成 Issues 和 Metrics</text>
  <text x="240" y="235" text-anchor="middle" font-size="10" fill="#B45309">Bug 漏洞 · 代码异味 · 覆盖率 · 复杂度</text>
  <line x1="240" y1="242" x2="240" y2="262" stroke="#7C3AED" stroke-width="2" marker-end="url(#arr)"/>

  <rect x="110" y="266" width="260" height="40" rx="10" fill="#DBEAFE" stroke="#93C5FD" stroke-width="1.5"/>
  <text x="240" y="291" text-anchor="middle" font-size="13" font-weight="700" fill="#1E40AF">上报结果到 Server</text>
  <line x1="240" y1="306" x2="240" y2="326" stroke="#7C3AED" stroke-width="2" marker-end="url(#arr)"/>

  <rect x="80" y="330" width="320" height="40" rx="10" fill="#E2E8F0" stroke="#CBD5E1" stroke-width="1.5"/>
  <text x="240" y="348" text-anchor="middle" font-size="13" font-weight="700" fill="#475569">Compute Engine 异步处理</text>
  <text x="240" y="364" text-anchor="middle" font-size="10" fill="#64748B">指标聚合 · 技术债计算 · ES 索引 → Web UI 可查询</text>
</svg>
