<svg width="960" height="400" viewBox="0 0 960 400" fill="none" xmlns="http://www.w3.org/2000/svg">
  <rect width="960" height="400" rx="24" fill="#FFF8ED"/>
  <rect x="54" y="154" width="170" height="92" rx="18" fill="#FFFFFF" stroke="#FB923C" stroke-width="2"/>
  <text x="92" y="208" fill="#9A3412" font-family="Arial, sans-serif" font-size="28" font-weight="700">App Pod</text>

  <rect x="318" y="84" width="210" height="88" rx="18" fill="#FFFFFF" stroke="#F59E0B" stroke-width="2"/>
  <text x="372" y="136" fill="#9A3412" font-family="Arial, sans-serif" font-size="28" font-weight="700">CoreDNS</text>

  <rect x="318" y="228" width="210" height="88" rx="18" fill="#FFFFFF" stroke="#FB923C" stroke-width="2"/>
  <text x="356" y="280" fill="#9A3412" font-family="Arial, sans-serif" font-size="26" font-weight="700">Service DNS</text>

  <rect x="658" y="74" width="220" height="108" rx="20" fill="#FFFFFF" stroke="#EA580C" stroke-width="2"/>
  <text x="706" y="122" fill="#9A3412" font-family="Arial, sans-serif" font-size="28" font-weight="700">Service</text>
  <text x="696" y="154" fill="#7C2D12" font-family="Arial, sans-serif" font-size="18">ClusterIP / Headless</text>

  <rect x="658" y="226" width="220" height="108" rx="20" fill="#FFFFFF" stroke="#FB923C" stroke-width="2"/>
  <text x="688" y="274" fill="#9A3412" font-family="Arial, sans-serif" font-size="28" font-weight="700">Pods / Endpoints</text>
  <text x="724" y="306" fill="#7C2D12" font-family="Arial, sans-serif" font-size="18">真实后端</text>

  <path d="M224 200H318" stroke="#FB923C" stroke-width="4" stroke-linecap="round"/>
  <path d="M424 172V228" stroke="#F59E0B" stroke-width="4" stroke-linecap="round"/>
  <path d="M528 128H658" stroke="#F97316" stroke-width="4" stroke-linecap="round"/>
  <path d="M528 272H658" stroke="#FB923C" stroke-width="4" stroke-linecap="round"/>
  <circle cx="318" cy="200" r="6" fill="#FB923C"/>
  <circle cx="658" cy="128" r="6" fill="#F97316"/>
  <circle cx="658" cy="272" r="6" fill="#FB923C"/>
</svg>
